<mxfile host="app.diagrams.net" modified="2022-01-11T10:24:04.923Z" agent="5.0 (Windows)" etag="ZxZRm-dW0g60YN4006iM" version="16.2.1" type="github">
  <diagram id="C5RBs43oDa-KdzZeNtuy" name="Page-1">
    <mxGraphModel dx="2249" dy="752" grid="1" gridSize="10" guides="1" tooltips="1" connect="1" arrows="1" fold="1" page="1" pageScale="1" pageWidth="827" pageHeight="1169" math="0" shadow="0">
      <root>
        <mxCell id="WIyWlLk6GJQsqaUBKTNV-0" />
        <mxCell id="WIyWlLk6GJQsqaUBKTNV-1" parent="WIyWlLk6GJQsqaUBKTNV-0" />
        <mxCell id="SefznGMojCGxdJdLDCL1-2" value="" style="edgeStyle=orthogonalEdgeStyle;rounded=0;orthogonalLoop=1;jettySize=auto;html=1;" edge="1" parent="WIyWlLk6GJQsqaUBKTNV-1" source="WIyWlLk6GJQsqaUBKTNV-3" target="WIyWlLk6GJQsqaUBKTNV-7">
          <mxGeometry relative="1" as="geometry" />
        </mxCell>
        <mxCell id="WIyWlLk6GJQsqaUBKTNV-3" value="原始数据" style="rounded=1;whiteSpace=wrap;html=1;fontSize=12;glass=0;strokeWidth=1;shadow=0;" parent="WIyWlLk6GJQsqaUBKTNV-1" vertex="1">
          <mxGeometry x="240" y="110" width="120" height="40" as="geometry" />
        </mxCell>
        <mxCell id="SefznGMojCGxdJdLDCL1-6" value="" style="edgeStyle=orthogonalEdgeStyle;rounded=0;orthogonalLoop=1;jettySize=auto;html=1;" edge="1" parent="WIyWlLk6GJQsqaUBKTNV-1" source="WIyWlLk6GJQsqaUBKTNV-7" target="SefznGMojCGxdJdLDCL1-5">
          <mxGeometry relative="1" as="geometry" />
        </mxCell>
        <mxCell id="SefznGMojCGxdJdLDCL1-25" style="edgeStyle=orthogonalEdgeStyle;rounded=0;orthogonalLoop=1;jettySize=auto;html=1;exitX=0;exitY=0.5;exitDx=0;exitDy=0;" edge="1" parent="WIyWlLk6GJQsqaUBKTNV-1" source="WIyWlLk6GJQsqaUBKTNV-7" target="SefznGMojCGxdJdLDCL1-20">
          <mxGeometry relative="1" as="geometry" />
        </mxCell>
        <mxCell id="WIyWlLk6GJQsqaUBKTNV-7" value="数据入口" style="rounded=1;whiteSpace=wrap;html=1;fontSize=12;glass=0;strokeWidth=1;shadow=0;" parent="WIyWlLk6GJQsqaUBKTNV-1" vertex="1">
          <mxGeometry x="240" y="190" width="120" height="40" as="geometry" />
        </mxCell>
        <mxCell id="SefznGMojCGxdJdLDCL1-64" style="edgeStyle=orthogonalEdgeStyle;rounded=0;orthogonalLoop=1;jettySize=auto;html=1;exitX=0;exitY=0.5;exitDx=0;exitDy=0;entryX=1;entryY=0.5;entryDx=0;entryDy=0;" edge="1" parent="WIyWlLk6GJQsqaUBKTNV-1" source="SefznGMojCGxdJdLDCL1-5" target="SefznGMojCGxdJdLDCL1-61">
          <mxGeometry relative="1" as="geometry" />
        </mxCell>
        <mxCell id="SefznGMojCGxdJdLDCL1-5" value="智能关键字梳理" style="whiteSpace=wrap;html=1;rounded=1;glass=0;strokeWidth=1;shadow=0;" vertex="1" parent="WIyWlLk6GJQsqaUBKTNV-1">
          <mxGeometry x="430" y="395" width="120" height="60" as="geometry" />
        </mxCell>
        <mxCell id="SefznGMojCGxdJdLDCL1-21" value="" style="swimlane;startSize=0;rounded=0;shadow=0;glass=0;sketch=0;fillColor=#DAE8FC;strokeColor=#6c8ebf;strokeWidth=2;" vertex="1" parent="WIyWlLk6GJQsqaUBKTNV-1">
          <mxGeometry x="-70" y="260" width="470" height="260" as="geometry">
            <mxRectangle x="-130" y="260" width="50" height="40" as="alternateBounds" />
          </mxGeometry>
        </mxCell>
        <mxCell id="SefznGMojCGxdJdLDCL1-29" style="edgeStyle=orthogonalEdgeStyle;rounded=0;orthogonalLoop=1;jettySize=auto;html=1;exitX=0.5;exitY=1;exitDx=0;exitDy=0;" edge="1" parent="SefznGMojCGxdJdLDCL1-21" source="SefznGMojCGxdJdLDCL1-20" target="SefznGMojCGxdJdLDCL1-28">
          <mxGeometry relative="1" as="geometry" />
        </mxCell>
        <mxCell id="SefznGMojCGxdJdLDCL1-20" value="元数据特征" style="rounded=1;whiteSpace=wrap;html=1;fillColor=#dae8fc;strokeColor=#6c8ebf;" vertex="1" parent="SefznGMojCGxdJdLDCL1-21">
          <mxGeometry x="110" y="30" width="120" height="60" as="geometry" />
        </mxCell>
        <mxCell id="SefznGMojCGxdJdLDCL1-60" style="edgeStyle=orthogonalEdgeStyle;rounded=0;orthogonalLoop=1;jettySize=auto;html=1;exitX=0.5;exitY=1;exitDx=0;exitDy=0;entryX=0.5;entryY=0;entryDx=0;entryDy=0;" edge="1" parent="SefznGMojCGxdJdLDCL1-21" source="SefznGMojCGxdJdLDCL1-28" target="SefznGMojCGxdJdLDCL1-31">
          <mxGeometry relative="1" as="geometry" />
        </mxCell>
        <mxCell id="SefznGMojCGxdJdLDCL1-28" value="正则、关键字" style="rounded=1;whiteSpace=wrap;html=1;shadow=0;glass=0;sketch=0;fillColor=#dae8fc;strokeColor=#6c8ebf;" vertex="1" parent="SefznGMojCGxdJdLDCL1-21">
          <mxGeometry x="110" y="105" width="120" height="60" as="geometry" />
        </mxCell>
        <mxCell id="SefznGMojCGxdJdLDCL1-31" value="智能字段特征" style="rounded=1;whiteSpace=wrap;html=1;shadow=0;glass=0;sketch=0;fillColor=#dae8fc;strokeColor=#6c8ebf;" vertex="1" parent="SefznGMojCGxdJdLDCL1-21">
          <mxGeometry x="110" y="180" width="120" height="60" as="geometry" />
        </mxCell>
        <mxCell id="SefznGMojCGxdJdLDCL1-46" style="edgeStyle=orthogonalEdgeStyle;rounded=0;orthogonalLoop=1;jettySize=auto;html=1;exitX=0;exitY=0.5;exitDx=0;exitDy=0;entryX=1;entryY=0.5;entryDx=0;entryDy=0;" edge="1" parent="SefznGMojCGxdJdLDCL1-21" source="SefznGMojCGxdJdLDCL1-45" target="SefznGMojCGxdJdLDCL1-28">
          <mxGeometry relative="1" as="geometry" />
        </mxCell>
        <mxCell id="SefznGMojCGxdJdLDCL1-45" value="正则表达式规则库" style="rounded=0;whiteSpace=wrap;html=1;shadow=0;glass=0;sketch=0;gradientColor=none;" vertex="1" parent="SefznGMojCGxdJdLDCL1-21">
          <mxGeometry x="290" y="90" width="110" height="30" as="geometry" />
        </mxCell>
        <mxCell id="SefznGMojCGxdJdLDCL1-59" value="数据特征" style="text;html=1;align=center;verticalAlign=middle;resizable=0;points=[];autosize=1;strokeColor=none;fillColor=none;fontSize=20;" vertex="1" parent="SefznGMojCGxdJdLDCL1-21">
          <mxGeometry y="20" width="100" height="30" as="geometry" />
        </mxCell>
        <mxCell id="SefznGMojCGxdJdLDCL1-63" style="edgeStyle=orthogonalEdgeStyle;rounded=0;orthogonalLoop=1;jettySize=auto;html=1;exitX=0;exitY=0.5;exitDx=0;exitDy=0;entryX=1;entryY=0.5;entryDx=0;entryDy=0;" edge="1" parent="SefznGMojCGxdJdLDCL1-21" source="SefznGMojCGxdJdLDCL1-61" target="SefznGMojCGxdJdLDCL1-28">
          <mxGeometry relative="1" as="geometry" />
        </mxCell>
        <mxCell id="SefznGMojCGxdJdLDCL1-61" value="关键字库" style="rounded=0;whiteSpace=wrap;html=1;shadow=0;glass=0;sketch=0;gradientColor=none;" vertex="1" parent="SefznGMojCGxdJdLDCL1-21">
          <mxGeometry x="290" y="150" width="110" height="30" as="geometry" />
        </mxCell>
        <mxCell id="SefznGMojCGxdJdLDCL1-52" value="" style="edgeStyle=orthogonalEdgeStyle;rounded=0;orthogonalLoop=1;jettySize=auto;html=1;" edge="1" parent="WIyWlLk6GJQsqaUBKTNV-1" source="SefznGMojCGxdJdLDCL1-41" target="SefznGMojCGxdJdLDCL1-51">
          <mxGeometry relative="1" as="geometry" />
        </mxCell>
        <mxCell id="SefznGMojCGxdJdLDCL1-41" value="分类" style="rounded=1;whiteSpace=wrap;html=1;shadow=0;glass=0;sketch=0;gradientColor=none;" vertex="1" parent="WIyWlLk6GJQsqaUBKTNV-1">
          <mxGeometry x="40" y="620" width="120" height="60" as="geometry" />
        </mxCell>
        <mxCell id="SefznGMojCGxdJdLDCL1-47" value="" style="edgeStyle=orthogonalEdgeStyle;rounded=0;orthogonalLoop=1;jettySize=auto;html=1;" edge="1" parent="WIyWlLk6GJQsqaUBKTNV-1" source="SefznGMojCGxdJdLDCL1-44" target="SefznGMojCGxdJdLDCL1-41">
          <mxGeometry relative="1" as="geometry" />
        </mxCell>
        <mxCell id="SefznGMojCGxdJdLDCL1-44" value="&lt;div&gt;1. 内置分类模板&lt;/div&gt;&lt;div&gt;2.自定义分类模板&lt;br&gt;&lt;/div&gt;" style="rounded=0;whiteSpace=wrap;html=1;shadow=0;glass=0;sketch=0;gradientColor=none;" vertex="1" parent="WIyWlLk6GJQsqaUBKTNV-1">
          <mxGeometry x="190" y="620" width="120" height="60" as="geometry" />
        </mxCell>
        <mxCell id="SefznGMojCGxdJdLDCL1-50" value="" style="edgeStyle=orthogonalEdgeStyle;rounded=0;orthogonalLoop=1;jettySize=auto;html=1;" edge="1" parent="WIyWlLk6GJQsqaUBKTNV-1" source="SefznGMojCGxdJdLDCL1-48" target="SefznGMojCGxdJdLDCL1-41">
          <mxGeometry relative="1" as="geometry" />
        </mxCell>
        <mxCell id="SefznGMojCGxdJdLDCL1-48" value="数据特征标签" style="rounded=1;whiteSpace=wrap;html=1;shadow=0;glass=0;sketch=0;gradientColor=none;" vertex="1" parent="WIyWlLk6GJQsqaUBKTNV-1">
          <mxGeometry x="40" y="540" width="120" height="60" as="geometry" />
        </mxCell>
        <mxCell id="SefznGMojCGxdJdLDCL1-56" value="" style="edgeStyle=orthogonalEdgeStyle;rounded=0;orthogonalLoop=1;jettySize=auto;html=1;" edge="1" parent="WIyWlLk6GJQsqaUBKTNV-1" source="SefznGMojCGxdJdLDCL1-51" target="SefznGMojCGxdJdLDCL1-55">
          <mxGeometry relative="1" as="geometry" />
        </mxCell>
        <mxCell id="SefznGMojCGxdJdLDCL1-51" value="分类" style="rounded=1;whiteSpace=wrap;html=1;shadow=0;glass=0;sketch=0;gradientColor=none;" vertex="1" parent="WIyWlLk6GJQsqaUBKTNV-1">
          <mxGeometry x="40" y="700" width="120" height="60" as="geometry" />
        </mxCell>
        <mxCell id="SefznGMojCGxdJdLDCL1-54" value="" style="edgeStyle=orthogonalEdgeStyle;rounded=0;orthogonalLoop=1;jettySize=auto;html=1;" edge="1" parent="WIyWlLk6GJQsqaUBKTNV-1" source="SefznGMojCGxdJdLDCL1-53" target="SefznGMojCGxdJdLDCL1-51">
          <mxGeometry relative="1" as="geometry" />
        </mxCell>
        <mxCell id="SefznGMojCGxdJdLDCL1-53" value="&lt;div&gt;1. 内置分级模板&lt;/div&gt;&lt;div&gt;2.自定义分级模板&lt;br&gt;&lt;/div&gt;" style="rounded=0;whiteSpace=wrap;html=1;shadow=0;glass=0;sketch=0;gradientColor=none;" vertex="1" parent="WIyWlLk6GJQsqaUBKTNV-1">
          <mxGeometry x="190" y="700" width="120" height="60" as="geometry" />
        </mxCell>
        <mxCell id="SefznGMojCGxdJdLDCL1-55" value="&lt;div&gt;1.数据样例&lt;/div&gt;&lt;div&gt;2.数据特征标签&lt;/div&gt;&lt;div&gt;3.类别&lt;/div&gt;&lt;div&gt;4.级别&lt;br&gt;&lt;/div&gt;" style="whiteSpace=wrap;html=1;rounded=1;shadow=0;glass=0;sketch=0;gradientColor=none;" vertex="1" parent="WIyWlLk6GJQsqaUBKTNV-1">
          <mxGeometry x="40" y="780" width="120" height="60" as="geometry" />
        </mxCell>
        <mxCell id="SefznGMojCGxdJdLDCL1-58" style="edgeStyle=orthogonalEdgeStyle;rounded=0;orthogonalLoop=1;jettySize=auto;html=1;" edge="1" parent="WIyWlLk6GJQsqaUBKTNV-1" source="SefznGMojCGxdJdLDCL1-31" target="SefznGMojCGxdJdLDCL1-48">
          <mxGeometry relative="1" as="geometry" />
        </mxCell>
        <mxCell id="SefznGMojCGxdJdLDCL1-68" style="edgeStyle=orthogonalEdgeStyle;rounded=0;orthogonalLoop=1;jettySize=auto;html=1;exitX=0;exitY=0.5;exitDx=0;exitDy=0;entryX=0;entryY=0.5;entryDx=0;entryDy=0;" edge="1" parent="WIyWlLk6GJQsqaUBKTNV-1" source="SefznGMojCGxdJdLDCL1-28" target="SefznGMojCGxdJdLDCL1-48">
          <mxGeometry relative="1" as="geometry">
            <Array as="points">
              <mxPoint x="-20" y="395" />
              <mxPoint x="-20" y="570" />
            </Array>
          </mxGeometry>
        </mxCell>
        <mxCell id="SefznGMojCGxdJdLDCL1-69" style="edgeStyle=orthogonalEdgeStyle;rounded=0;orthogonalLoop=1;jettySize=auto;html=1;exitX=0;exitY=0.5;exitDx=0;exitDy=0;entryX=0;entryY=0.5;entryDx=0;entryDy=0;" edge="1" parent="WIyWlLk6GJQsqaUBKTNV-1" source="SefznGMojCGxdJdLDCL1-20" target="SefznGMojCGxdJdLDCL1-48">
          <mxGeometry relative="1" as="geometry">
            <Array as="points">
              <mxPoint x="10" y="320" />
              <mxPoint x="10" y="570" />
            </Array>
          </mxGeometry>
        </mxCell>
        <mxCell id="SefznGMojCGxdJdLDCL1-71" style="edgeStyle=orthogonalEdgeStyle;rounded=0;orthogonalLoop=1;jettySize=auto;html=1;exitX=0;exitY=0.5;exitDx=0;exitDy=0;entryX=1;entryY=0.5;entryDx=0;entryDy=0;" edge="1" parent="WIyWlLk6GJQsqaUBKTNV-1" source="SefznGMojCGxdJdLDCL1-70" target="SefznGMojCGxdJdLDCL1-31">
          <mxGeometry relative="1" as="geometry" />
        </mxCell>
        <mxCell id="SefznGMojCGxdJdLDCL1-72" style="edgeStyle=orthogonalEdgeStyle;rounded=0;orthogonalLoop=1;jettySize=auto;html=1;exitX=0.5;exitY=0;exitDx=0;exitDy=0;entryX=0.5;entryY=1;entryDx=0;entryDy=0;" edge="1" parent="WIyWlLk6GJQsqaUBKTNV-1" source="SefznGMojCGxdJdLDCL1-70" target="SefznGMojCGxdJdLDCL1-5">
          <mxGeometry relative="1" as="geometry">
            <mxPoint x="490" y="460" as="targetPoint" />
          </mxGeometry>
        </mxCell>
        <mxCell id="SefznGMojCGxdJdLDCL1-70" value="命名实体识别模型" style="rounded=0;whiteSpace=wrap;html=1;shadow=0;glass=0;sketch=0;" vertex="1" parent="WIyWlLk6GJQsqaUBKTNV-1">
          <mxGeometry x="430" y="540" width="120" height="60" as="geometry" />
        </mxCell>
      </root>
    </mxGraphModel>
  </diagram>
</mxfile>
